<svg width="505" height="375" viewBox="0 0 505 375" fill="none" xmlns="http://www.w3.org/2000/svg">
<path fill-rule="evenodd" clip-rule="evenodd" d="M481.024 193.827C496.018 168.718 499.61 139.022 491.183 109.847C482.756 80.6711 462.836 53.84 434.851 33.9689C406.865 14.0978 372.563 2.42894 337.845 0.969601C303.127 -0.48974 270.164 8.35168 244.626 25.973C241.649 24.1391 238.534 22.4236 235.28 20.8263C223.106 14.8479 209.818 11.0497 196.329 9.69288C182.84 8.336 169.469 9.45256 157.136 12.9658C144.802 16.479 133.799 22.3057 124.881 30.0454C115.963 37.7851 109.342 47.2544 105.473 57.8026C80.7255 57.0002 57.2233 63.1825 38.644 75.3821C20.0647 87.5818 7.45632 105.111 2.79187 125.226C-1.8726 145.341 1.66994 166.908 12.8651 186.552C24.0603 206.196 42.2765 222.809 64.6637 233.792L317.694 358.006C344.551 371.203 374.981 376.677 403.961 373.524C432.942 370.371 458.741 358.779 477.1 340.663C495.46 322.547 505.282 298.988 504.945 273.876C504.609 248.763 494.134 223.599 475.249 202.535C477.324 199.714 479.251 196.809 481.024 193.827Z" fill="white"/>
</svg>
