<svg width="508" height="256" viewBox="0 0 508 256" fill="none" xmlns="http://www.w3.org/2000/svg">
<path fill-rule="evenodd" clip-rule="evenodd" d="M71.7456 98.0927C71.4494 76.8487 82.9096 55.7627 104.155 38.462C125.4 21.1612 155.102 8.7273 188.152 3.29907C221.202 -2.12916 255.533 -0.212323 285.24 8.71984C314.947 17.652 338.172 33.0411 350.921 52.2398C354.3 51.8516 357.737 51.5827 361.233 51.4332C374.311 50.8725 387.259 52.1029 399.186 55.0399C411.113 57.9768 421.736 62.5507 430.326 68.4472C438.916 74.3437 445.269 81.4231 448.949 89.1989C452.628 96.9747 453.547 105.263 451.642 113.493C472.702 120.021 489.32 130.911 498.897 144.46C508.474 158.008 510.469 173.451 504.569 188.371C498.67 203.291 485.209 216.848 466.293 226.919C447.377 236.991 424.073 243.009 400.028 244.032L128.211 255.655C99.3543 256.898 71.2739 251.902 48.6046 241.493C25.9353 231.084 10.0323 215.884 3.52052 198.402C-2.99131 180.919 0.277288 162.2 12.7868 145.332C25.2963 128.465 46.299 114.459 72.3282 105.625C71.9688 103.126 71.7745 100.614 71.7456 98.0927Z" fill="white"/>
</svg>
