<svg xmlns="http://www.w3.org/2080/svg" xmlns:xlink="http://www.w3.org/1999/xlink" style="display:none">
    <symbol id="facebook" viewBox="0 0 60 59">
        <path fill-rule="evenodd" clip-rule="evenodd" d="M32.0479 58.5487H3.31154C1.48209 58.5487 0 57.1016 0 55.3171V3.23142C0 1.44646 1.48232 0 3.31154 0H56.6887C58.5174 0 60 1.44646 60 3.23142V55.3171C60 57.1018 58.5172 58.5487 56.6887 58.5487H41.3991V35.8754H49.1982L50.3659 27.0392H41.3991V21.3979C41.3991 18.8396 42.1271 17.0962 45.8866 17.0962L50.6816 17.0942V9.19104C49.8524 9.08336 47.006 8.84277 43.6944 8.84277C36.781 8.84277 32.0479 12.9606 32.0479 20.5228V27.0392H24.2289V35.8754H32.0479V58.5487Z" fill="#4460A0"/>
    </symbol>
</svg>