<svg width="412" height="410" viewBox="0 0 412 410" fill="none" xmlns="http://www.w3.org/2000/svg">
<path d="M128.432 43.2742C158.22 90.3454 179.007 170.84 182.568 211.173L148.569 301.335C149.293 299.416 147.737 301.307 144.387 305.38C126.271 327.443 55.5395 413.539 8.69365 305.723C-15.974 248.956 18.3703 214.442 96.5274 229.584C51.8159 220.92 9.06355 191.253 13.6399 139.873C14.9509 125.09 39.6639 40.3095 43.8597 29.1825C64.8774 -26.5545 106.936 9.31577 128.432 43.2742ZM334.086 120.824C280.635 136.506 211.874 183.234 182.568 211.173L148.569 301.335C149.293 299.416 149.212 301.863 149.039 307.134C148.077 335.665 144.35 447.028 250.721 396.988C306.729 370.643 303.724 322.046 235.029 281.811C274.329 304.827 326.025 310.775 356.514 269.166C365.29 257.198 402.71 177.209 406.906 166.082C427.923 110.345 372.658 109.516 334.086 120.824Z" fill="url(#paint0_linear_315_91)"/>
<defs>
<linearGradient id="paint0_linear_315_91" x1="57.8818" y1="-8.00293" x2="-63.1404" y2="312.937" gradientUnits="userSpaceOnUse">
<stop stop-color="#FF7ADB"/>
<stop offset="1" stop-color="#FFDDE3"/>
</linearGradient>
</defs>
</svg>
